<svg width="81" height="80" viewBox="0 0 81 80" fill="none" xmlns="http://www.w3.org/2000/svg">
<path d="M20.4999 19.9999H17.1666V6.66654C17.1666 2.98988 20.1566 -0.00012207 23.8333 -0.00012207H37.1666V3.33321H23.8333C21.9933 3.33321 20.4999 4.82654 20.4999 6.66654V19.9999ZM73.8333 -0.00012207H60.4999V3.33321H73.8333C75.6733 3.33321 77.1666 4.82654 77.1666 6.66654V19.9999H80.4999V6.66654C80.4999 2.98988 77.5099 -0.00012207 73.8333 -0.00012207ZM63.3166 44.3332L51.4966 41.2165L45.3866 53.3265L42.4999 52.8332L41.0866 41.7699L2.93992 79.9165L0.583252 77.5599L38.6766 39.4665L27.6833 38.0632L27.2966 35.1965L39.4566 28.9299L36.1199 17.2299L38.2066 15.1432L48.0499 24.9865L60.8899 17.4699L63.0966 19.6565L55.5699 32.5032L65.3599 42.2932L63.3166 44.3332ZM57.8033 39.4499L51.3899 33.0365L56.8733 23.6799L47.5099 29.1632L41.1866 22.8332L43.4099 30.6399L33.9733 35.5032L43.8099 36.7599L45.0633 46.5732L49.7399 37.2999L57.8033 39.4532V39.4499ZM77.1666 56.6665C77.1666 58.5065 75.6733 59.9999 73.8333 59.9999H60.4999V63.3332H73.8333C77.5099 63.3332 80.4999 60.3432 80.4999 56.6665V43.3332H77.1666V56.6665Z" fill="#EC1380"/>
</svg>
