<svg width="81" height="80" viewBox="0 0 81 80" fill="none" xmlns="http://www.w3.org/2000/svg">
<path d="M79.44 19.8867C79.24 19.9633 79.0367 20 78.8333 20C78.1667 20 77.5367 19.5967 77.28 18.94L72.1 5.66333C60.3033 33.49 36.9333 51.77 2.55333 59.9533C2.42333 59.9867 2.29333 60 2.16667 60C1.41333 60 0.73 59.4867 0.546667 58.72C0.333333 57.8233 0.886667 56.9233 1.78333 56.71C35.29 48.7333 57.9733 30.9367 69.2633 3.83667L55.2867 9.29C54.4367 9.62667 53.4633 9.2 53.13 8.34333C52.7967 7.48667 53.22 6.52 54.0767 6.18667L68.74 0.463333C69.8767 0.02 71.1167 0.04 72.2367 0.533333C73.3567 1.02667 74.22 1.92333 74.6633 3.06333L80.3867 17.73C80.7233 18.5867 80.2967 19.5533 79.44 19.8867ZM72.1667 26.6667C71.2467 26.6667 70.5 27.4133 70.5 28.3333V78.3333C70.5 79.2533 71.2467 80 72.1667 80C73.0867 80 73.8333 79.2533 73.8333 78.3333V28.3333C73.8333 27.4133 73.0867 26.6667 72.1667 26.6667ZM55.5 43.3333C54.58 43.3333 53.8333 44.08 53.8333 45V78.3333C53.8333 79.2533 54.58 80 55.5 80C56.42 80 57.1667 79.2533 57.1667 78.3333V45C57.1667 44.08 56.42 43.3333 55.5 43.3333ZM22.1667 60C21.2467 60 20.5 60.7467 20.5 61.6667V78.3333C20.5 79.2533 21.2467 80 22.1667 80C23.0867 80 23.8333 79.2533 23.8333 78.3333V61.6667C23.8333 60.7467 23.0867 60 22.1667 60ZM5.5 66.6667C4.58 66.6667 3.83333 67.4133 3.83333 68.3333V78.3333C3.83333 79.2533 4.58 80 5.5 80C6.42 80 7.16667 79.2533 7.16667 78.3333V68.3333C7.16667 67.4133 6.42 66.6667 5.5 66.6667ZM38.8333 53.3333C37.9133 53.3333 37.1667 54.08 37.1667 55V78.3333C37.1667 79.2533 37.9133 80 38.8333 80C39.7533 80 40.5 79.2533 40.5 78.3333V55C40.5 54.08 39.7533 53.3333 38.8333 53.3333ZM0.5 20C0.5 8.97 9.47 0 20.5 0C31.53 0 40.5 8.97 40.5 20C40.5 31.03 31.53 40 20.5 40C9.47 40 0.5 31.03 0.5 20ZM20.5 36.6667C22.89 36.6667 25.1533 36.14 27.2133 35.23C27.2033 35.1533 27.1667 35.0833 27.1667 35V33.3333C27.1667 29.6567 24.1767 26.6667 20.5 26.6667C16.8233 26.6667 13.8333 29.6567 13.8333 33.3333V35C13.8333 35.08 13.8 35.15 13.7867 35.23C15.8433 36.14 18.1067 36.6667 20.5 36.6667ZM3.83333 20C3.83333 25.4267 6.48 30.21 10.5067 33.2533C10.55 27.7767 15.01 23.3333 20.5 23.3333C25.99 23.3333 30.45 27.7767 30.4933 33.2533C34.52 30.2067 37.1667 25.4267 37.1667 20C37.1667 10.81 29.69 3.33333 20.5 3.33333C11.31 3.33333 3.83333 10.81 3.83333 20ZM13.8333 13.3333C13.8333 9.65667 16.8233 6.66667 20.5 6.66667C24.1767 6.66667 27.1667 9.65667 27.1667 13.3333C27.1667 17.01 24.1767 20 20.5 20C16.8233 20 13.8333 17.01 13.8333 13.3333ZM17.1667 13.3333C17.1667 15.1733 18.6633 16.6667 20.5 16.6667C22.3367 16.6667 23.8333 15.1733 23.8333 13.3333C23.8333 11.4933 22.3367 10 20.5 10C18.6633 10 17.1667 11.4933 17.1667 13.3333Z" fill="#EC1380"/>
</svg>
