<svg width="81" height="80" viewBox="0 0 81 80" fill="none" xmlns="http://www.w3.org/2000/svg">
<path d="M80.5 5V23.3333H77.1667V5.69L58.3467 24.51L55.99 22.1533L74.81 3.33333H57.1667V0H75.5C78.2567 0 80.5 2.24333 80.5 5ZM40.5 76.6667C20.2833 76.6667 3.83333 60.2167 3.83333 40C3.83333 19.7833 20.2833 3.33333 40.5 3.33333V0C18.4433 0 0.5 17.9433 0.5 40C0.5 62.0567 18.4433 80 40.5 80C62.5567 80 80.5 62.0567 80.5 40H77.1667C77.1667 60.2167 60.7167 76.6667 40.5 76.6667ZM38.8333 16.6667V23.3333H35.4833C30.8967 23.3333 27.1667 27.0633 27.1667 31.65C27.1667 35.3433 29.6467 38.6333 33.2 39.6433L46.8867 43.5567C49.0133 44.1667 50.5 46.1333 50.5 48.35C50.5 51.0967 48.2633 53.3333 45.5167 53.3333H35.4833C32.7367 53.3333 30.5 51.0967 30.5 48.35V46.6667H27.1667V48.35C27.1667 52.9367 30.8967 56.6667 35.4833 56.6667H38.8333V63.3333H42.1667V56.6667H45.5167C50.1033 56.6667 53.8333 52.9367 53.8333 48.35C53.8333 44.6567 51.3533 41.3667 47.8 40.3567L34.1133 36.4433C31.9867 35.8333 30.5 33.8667 30.5 31.65C30.5 28.9033 32.7367 26.6667 35.4833 26.6667H45.5167C48.2633 26.6667 50.5 28.9033 50.5 31.65V33.3333H53.8333V31.65C53.8333 27.0633 50.1033 23.3333 45.5167 23.3333H42.1667V16.6667H38.8333Z" fill="#EC1380"/>
</svg>
